<?xml version="1.0" standalone="no"?>
<!DOCTYPE svg PUBLIC "-//W3C//DTD SVG 20010904//EN"
 "http://www.w3.org/TR/2001/REC-SVG-20010904/DTD/svg10.dtd">
<svg version="1.0" xmlns="http://www.w3.org/2000/svg"
 width="1042.000000pt" height="168.000000pt" viewBox="0 0 1042.000000 168.000000"
 preserveAspectRatio="xMidYMid meet">
<metadata>
Created by potrace 1.14, written by Peter Selinger 2001-2017
</metadata>
<g transform="translate(0.000000,168.000000) scale(0.100000,-0.100000)"
fill="#000000" stroke="none">
<path d="M0 1616 l0 -65 393 -3 c429 -3 435 -4 501 -66 55 -52 66 -92 66 -252
0 -160 -10 -199 -66 -254 -66 -65 -85 -69 -354 -77 -178 -4 -258 -11 -292 -22
-112 -36 -192 -108 -228 -204 -18 -50 -20 -78 -20 -358 l0 -305 545 0 545 0 0
65 0 65 -485 0 -485 0 0 216 c0 250 6 280 66 341 64 63 109 73 343 73 286 0
381 26 474 130 67 75 79 117 85 302 4 140 2 165 -17 227 -39 129 -154 219
-306 241 -38 5 -226 10 -417 10 l-348 0 0 -64z"/>
<path d="M1751 1669 c-90 -15 -166 -55 -225 -120 -94 -101 -91 -79 -91 -714
l0 -550 23 -57 c27 -66 91 -137 152 -168 80 -41 158 -50 430 -50 278 0 335 8
413 53 61 36 122 107 149 176 21 53 23 72 26 359 l3 303 -63 -3 -63 -3 -5
-295 -5 -295 -27 -46 c-27 -46 -79 -89 -131 -108 -37 -14 -569 -14 -618 -1
-20 6 -57 28 -82 50 -80 71 -78 52 -75 662 l3 536 30 44 c21 30 48 52 90 73
l60 30 413 3 413 3 -3 62 -3 62 -380 1 c-209 1 -404 -2 -434 -7z"/>
<path d="M3830 1669 c-143 -21 -245 -90 -296 -201 -28 -60 -29 -71 -32 -226
-5 -200 7 -247 79 -327 90 -98 193 -125 480 -125 221 0 276 -10 335 -62 65
-57 69 -74 69 -263 0 -162 -1 -172 -24 -212 -29 -50 -84 -91 -138 -104 -21 -5
-210 -9 -420 -9 l-383 0 0 -66 0 -65 408 3 c399 3 408 4 465 27 39 15 78 42
116 80 81 78 101 137 108 302 9 203 -20 312 -104 390 -99 93 -136 101 -443
109 -235 5 -258 7 -295 27 -47 25 -85 64 -111 113 -16 29 -19 58 -19 175 0
127 2 144 24 189 28 57 88 99 162 115 30 7 197 11 420 11 l370 0 -3 63 -3 62
-355 1 c-195 1 -380 -2 -410 -7z"/>
<path d="M4657 1673 c-4 -3 -7 -33 -7 -65 l0 -58 240 0 240 0 0 -770 0 -771
63 3 62 3 3 768 2 767 235 0 235 0 0 65 0 65 -533 0 c-294 0 -537 -3 -540 -7z"/>
<path d="M5854 1667 c-2 -7 -3 -315 -2 -683 3 -606 5 -674 21 -721 33 -98 130
-195 232 -230 43 -16 90 -18 350 -18 290 0 302 1 357 23 71 29 145 94 181 159
57 105 57 108 57 825 l0 658 -60 0 -60 0 0 -617 c0 -351 -5 -647 -10 -686 -17
-113 -54 -167 -145 -209 -48 -22 -60 -23 -315 -23 -228 0 -272 2 -316 18 -61
21 -110 66 -138 127 -20 44 -21 61 -26 715 l-5 670 -58 3 c-41 2 -59 -1 -63
-11z"/>
<path d="M7337 1674 c-4 -4 -7 -380 -7 -836 l0 -829 463 3 c461 3 462 3 521
27 72 29 143 92 180 160 51 96 56 144 56 652 0 483 -4 549 -42 623 -34 66
-125 150 -193 177 -60 24 -62 24 -515 27 -251 2 -459 0 -463 -4z m937 -148
c46 -23 99 -74 123 -119 17 -29 18 -74 18 -562 0 -528 0 -530 -22 -572 -12
-22 -39 -55 -60 -72 -69 -58 -98 -61 -505 -61 l-368 0 0 705 0 706 388 -3
c359 -3 390 -4 426 -22z"/>
<path d="M8830 845 l0 -835 60 0 60 0 0 835 0 835 -60 0 -60 0 0 -835z"/>
<path d="M9572 1669 c-186 -27 -299 -130 -331 -303 -14 -76 -15 -972 -1 -1047
16 -86 67 -177 124 -220 92 -69 150 -82 407 -87 330 -6 434 17 532 116 54 55
82 113 96 202 17 105 14 959 -4 1043 -37 176 -144 269 -340 297 -85 12 -396
11 -483 -1z m543 -138 c58 -24 103 -62 131 -114 l29 -52 3 -490 c2 -338 0
-506 -8 -542 -15 -70 -58 -127 -122 -160 l-53 -28 -275 0 c-239 0 -280 2 -311
17 -54 25 -97 65 -122 112 -22 41 -22 44 -22 566 l0 525 31 55 c35 63 94 105
164 120 67 13 518 7 555 -9z"/>
</g>
</svg>
