<?xml version="1.0" encoding="UTF-8" standalone="no"?><!DOCTYPE svg PUBLIC "-//W3C//DTD SVG 1.1//EN" "http://www.w3.org/Graphics/SVG/1.1/DTD/svg11.dtd"><svg width="100%" height="100%" viewBox="0 0 500 500" version="1.1" xmlns="http://www.w3.org/2000/svg" xmlns:xlink="http://www.w3.org/1999/xlink" xml:space="preserve" style="fill-rule:evenodd;clip-rule:evenodd;stroke-linejoin:round;stroke-miterlimit:1.41421;"><rect id="Artboard17" x="0" y="0" width="500" height="500" style="fill:none;"/><clipPath id="_clip1"><rect id="Artboard171" x="0" y="0" width="500" height="500"/></clipPath><g clip-path="url(#_clip1)"><g id="Layer-2"><path d="M251.44,218.636l0,62.728l54.324,-31.364l-54.324,-31.364Zm-6.356,80.093c-1.097,0 -2.195,-0.284 -3.178,-0.852c-1.966,-1.135 -3.178,-3.233 -3.178,-5.504l0,-84.746c0,-2.271 1.212,-4.369 3.178,-5.504c1.966,-1.135 4.39,-1.135 6.356,0l73.392,42.373c1.966,1.135 3.178,3.233 3.178,5.504c0,2.271 -1.212,4.369 -3.178,5.505l-73.392,42.372c-0.983,0.568 -2.081,0.852 -3.178,0.852" style="fill-rule:nonzero;"/><path d="M133.475,197.599l-127.119,-0.001c-3.51,0 -6.356,-2.846 -6.356,-6.356c0,-3.51 2.846,-6.356 6.356,-6.356l127.119,0c3.51,0 6.356,2.846 6.356,6.356c0,3.51 -2.846,6.356 -6.356,6.356" style="fill-rule:nonzero;"/><path d="M133.475,256.356l-127.119,0c-3.51,0 -6.356,-2.846 -6.356,-6.356c0,-3.51 2.846,-6.356 6.356,-6.356l127.119,0c3.51,0 6.356,2.846 6.356,6.356c0,3.51 -2.846,6.356 -6.356,6.356" style="fill-rule:nonzero;"/><path d="M133.475,315.113l-127.119,0c-3.51,0 -6.356,-2.846 -6.356,-6.356c0,-3.51 2.846,-6.356 6.356,-6.356l127.119,0c3.51,0 6.356,2.846 6.356,6.356c0,3.51 -2.846,6.356 -6.356,6.356" style="fill-rule:nonzero;"/><path d="M493.644,415.254l-423.729,0c-3.51,0 -6.356,-2.846 -6.356,-6.356l0,-77.609c0,-3.511 2.846,-6.356 6.356,-6.356c3.51,0 6.356,2.845 6.356,6.356l0,71.253l411.017,0l0,-305.085l-411.017,0l0,71.254c0,3.51 -2.846,6.356 -6.356,6.356c-3.51,0 -6.356,-2.846 -6.356,-6.356l0,-77.61c0,-3.51 2.846,-6.355 6.356,-6.355l423.729,0c3.51,0 6.356,2.845 6.356,6.355l0,317.797c0,3.51 -2.846,6.356 -6.356,6.356" style="fill-rule:nonzero;"/></g></g></svg>