<?xml version="1.0" encoding="UTF-8" standalone="no"?><!DOCTYPE svg PUBLIC "-//W3C//DTD SVG 1.1//EN" "http://www.w3.org/Graphics/SVG/1.1/DTD/svg11.dtd"><svg width="100%" height="100%" viewBox="0 0 500 500" version="1.1" xmlns="http://www.w3.org/2000/svg" xmlns:xlink="http://www.w3.org/1999/xlink" xml:space="preserve" style="fill-rule:evenodd;clip-rule:evenodd;stroke-linejoin:round;stroke-miterlimit:1.41421;"><rect id="Artboard20" x="0" y="0" width="500" height="500" style="fill:none;"/><clipPath id="_clip1"><rect id="Artboard201" x="0" y="0" width="500" height="500"/></clipPath><g clip-path="url(#_clip1)"><g id="Layer-2"><path d="M247.481,211.24l0,77.521l67.135,-38.76l-67.135,-38.761Zm-1.485,83.557c-0.6,0 -1.199,-0.154 -1.733,-0.463c-1.069,-0.617 -1.733,-1.767 -1.733,-3.001l0,-82.665c0,-1.235 0.664,-2.384 1.733,-3.002c1.069,-0.616 2.396,-0.616 3.465,0l71.591,41.334c1.069,0.616 1.733,1.767 1.733,3.001c0,1.234 -0.664,2.384 -1.733,3.001l-71.59,41.332c-0.535,0.309 -1.134,0.463 -1.733,0.463" style="fill-rule:nonzero;"/><path d="M131.619,192.783l-129.143,0c-1.367,0 -2.476,-1.108 -2.476,-2.475c0,-1.367 1.109,-2.475 2.476,-2.475l129.143,0c1.367,0 2.475,1.108 2.475,2.475c0,1.367 -1.108,2.475 -2.475,2.475" style="fill-rule:nonzero;"/><path d="M131.619,252.475l-129.143,0c-1.367,0 -2.476,-1.108 -2.476,-2.475c0,-1.367 1.109,-2.475 2.476,-2.475l129.143,0c1.367,0 2.475,1.108 2.475,2.475c0,1.367 -1.108,2.475 -2.475,2.475" style="fill-rule:nonzero;"/><path d="M131.619,312.168l-129.143,0c-1.367,0 -2.476,-1.108 -2.476,-2.475c0,-1.367 1.109,-2.475 2.476,-2.475l129.143,0c1.367,0 2.475,1.108 2.475,2.475c0,1.367 -1.108,2.475 -2.475,2.475" style="fill-rule:nonzero;"/><path d="M496.535,413.905l-428.497,-0.001c-1.911,0 -3.466,-1.555 -3.466,-3.464l0,-77.857c0,-1.367 1.108,-2.475 2.475,-2.475c1.367,0 2.476,1.108 2.476,2.475l0,76.37l425.527,0l0,-317.907l-425.527,0l0,76.37c0,1.367 -1.109,2.475 -2.476,2.475c-1.367,0 -2.475,-1.108 -2.475,-2.475l0,-77.855c0,-1.911 1.555,-3.466 3.466,-3.466l428.497,0c1.911,0 3.465,1.555 3.465,3.466l0,320.878c0,1.91 -1.554,3.465 -3.465,3.465" style="fill-rule:nonzero;"/></g></g></svg>