<?xml version="1.0" encoding="UTF-8" standalone="no"?><!DOCTYPE svg PUBLIC "-//W3C//DTD SVG 1.1//EN" "http://www.w3.org/Graphics/SVG/1.1/DTD/svg11.dtd"><svg width="100%" height="100%" viewBox="0 0 500 500" version="1.1" xmlns="http://www.w3.org/2000/svg" xmlns:xlink="http://www.w3.org/1999/xlink" xml:space="preserve" style="fill-rule:evenodd;clip-rule:evenodd;stroke-linejoin:round;stroke-miterlimit:1.41421;"><rect id="Artboard19" x="0" y="0" width="500" height="500" style="fill:none;"/><clipPath id="_clip1"><rect id="Artboard191" x="0" y="0" width="500" height="500"/></clipPath><g clip-path="url(#_clip1)"><g id="Layer-2"><path d="M126.238,500l-122.772,0c-1.911,0 -3.466,-1.555 -3.466,-3.465l0,-122.773c0,-1.367 1.109,-2.475 2.476,-2.475c1.367,0 2.475,1.108 2.475,2.475l0,121.287l121.287,0c1.367,0 2.475,1.109 2.475,2.476c0,1.367 -1.108,2.475 -2.475,2.475" style="fill-rule:nonzero;"/><path d="M497.525,128.713c-1.367,0 -2.475,-1.108 -2.475,-2.475l0,-121.287l-121.287,0c-1.367,0 -2.476,-1.108 -2.476,-2.476c0,-1.367 1.109,-2.475 2.476,-2.475l122.772,0c1.911,0 3.465,1.555 3.465,3.465l0,122.773c0,1.367 -1.108,2.475 -2.475,2.475" style="fill-rule:nonzero;"/><path d="M2.476,128.713c-1.367,0 -2.475,-1.108 -2.475,-2.475l0,-122.773c0,-1.91 1.554,-3.465 3.465,-3.465l122.772,0c1.367,0 2.476,1.108 2.476,2.475c0,1.368 -1.109,2.476 -2.476,2.476l-121.287,0l0,121.287c0,1.367 -1.108,2.475 -2.475,2.475" style="fill-rule:nonzero;"/><path d="M496.535,500l-122.772,0c-1.367,0 -2.476,-1.108 -2.476,-2.475c0,-1.367 1.109,-2.476 2.476,-2.476l121.287,0l0,-121.287c0,-1.367 1.108,-2.475 2.475,-2.475c1.367,0 2.475,1.108 2.475,2.475l0,122.773c0,1.91 -1.554,3.465 -3.465,3.465" style="fill-rule:nonzero;"/><path d="M154.365,130.921c-18.289,0 -33.168,14.879 -33.168,33.168c0,18.29 14.879,33.169 33.168,33.169c18.289,0 33.168,-14.879 33.168,-33.169c0,-18.289 -14.879,-33.168 -33.168,-33.168m0,71.287c-21.019,0 -38.119,-17.1 -38.119,-38.119c0,-21.018 17.1,-38.119 38.119,-38.119c21.019,0 38.119,17.101 38.119,38.119c0,21.019 -17.1,38.119 -38.119,38.119" style="fill-rule:nonzero;"/><path d="M124.397,408.655l282.269,0l-106.118,-169.817l-72.628,116.224c-0.637,1.02 -1.736,1.629 -2.939,1.629c-1.202,0 -2.301,-0.609 -2.939,-1.629l-32.077,-51.333l-65.568,104.926Zm284.948,4.95l-287.628,0c-1.259,0 -2.42,-0.684 -3.03,-1.785c-0.611,-1.101 -0.575,-2.449 0.092,-3.516l68.247,-109.214c0.637,-1.02 1.736,-1.629 2.939,-1.629c1.203,0 2.302,0.609 2.939,1.63l32.077,51.332l72.628,-116.224l0.001,0c0.637,-1.02 1.735,-1.628 2.938,-1.628c1.203,0 2.301,0.608 2.938,1.628l108.798,174.105c0.667,1.067 0.703,2.415 0.092,3.516c-0.61,1.101 -1.772,1.785 -3.031,1.785" style="fill-rule:nonzero;"/></g></g></svg>