<?xml version="1.0" encoding="UTF-8" standalone="no"?><!DOCTYPE svg PUBLIC "-//W3C//DTD SVG 1.1//EN" "http://www.w3.org/Graphics/SVG/1.1/DTD/svg11.dtd"><svg width="100%" height="100%" viewBox="0 0 500 500" version="1.1" xmlns="http://www.w3.org/2000/svg" xmlns:xlink="http://www.w3.org/1999/xlink" xml:space="preserve" style="fill-rule:evenodd;clip-rule:evenodd;stroke-linejoin:round;stroke-miterlimit:1.41421;"><rect id="Artboard21" x="0" y="0" width="500" height="500" style="fill:none;"/><clipPath id="_clip1"><rect id="Artboard211" x="0" y="0" width="500" height="500"/></clipPath><g clip-path="url(#_clip1)"><g id="Layer-2"><path d="M138.194,302.837c-28.793,0 -52.218,-23.425 -52.218,-52.219c0,-28.793 23.425,-52.218 52.218,-52.218c28.793,0 52.218,23.425 52.218,52.218c0,28.794 -23.425,52.219 -52.218,52.219m0,-110.01c-31.866,0 -57.792,25.925 -57.792,57.791c0,31.867 25.926,57.793 57.792,57.793c31.866,0 57.792,-25.926 57.792,-57.793c0,-31.866 -25.926,-57.791 -57.792,-57.791" style="fill-rule:nonzero;"/><path d="M494.427,109.419l0,281.163c0,6.824 -5.552,12.376 -12.376,12.376l-136.896,0c-9.873,0 -18.711,-5.885 -22.519,-14.994l-37.774,-90.374c-0.532,-1.273 -1.101,-2.359 -1.74,-3.318c-7.384,-11.067 -19.766,-17.673 -33.122,-17.673c-13.355,0 -25.737,6.606 -33.121,17.674c-0.64,0.958 -1.209,2.044 -1.74,3.315l-37.775,90.376c-3.807,9.109 -12.646,14.994 -22.519,14.994l-136.895,0c-6.824,0 -12.377,-5.552 -12.377,-12.376l0,-281.163c0,-6.824 5.553,-12.376 12.377,-12.376l464.101,0c6.824,0 12.376,5.552 12.376,12.376m-11.753,-17.95l-465.347,0c-9.554,0 -17.327,7.773 -17.327,17.327l0,282.409c0,9.554 7.773,17.326 17.327,17.326l137.518,0c12.127,0 22.985,-7.23 27.661,-18.418l37.775,-90.375c0.394,-0.941 0.797,-1.718 1.234,-2.372c6.348,-9.514 16.997,-15.194 28.485,-15.194c11.489,0 22.137,5.68 28.485,15.193c0.437,0.655 0.841,1.432 1.234,2.372l37.776,90.376c4.676,11.188 15.533,18.418 27.66,18.418l137.519,0c9.553,0 17.326,-7.772 17.326,-17.326l0,-282.409c0,-9.554 -7.773,-17.327 -17.326,-17.327" style="fill-rule:nonzero;"/><path d="M361.807,302.837c-28.793,0 -52.219,-23.425 -52.219,-52.219c0,-28.793 23.426,-52.218 52.219,-52.218c28.793,0 52.218,23.425 52.218,52.218c0,28.794 -23.425,52.219 -52.218,52.219m0,-110.01c-31.867,0 -57.792,25.925 -57.792,57.791c0,31.867 25.925,57.793 57.792,57.793c31.866,0 57.791,-25.926 57.791,-57.793c0,-31.866 -25.925,-57.791 -57.791,-57.791" style="fill-rule:nonzero;"/></g></g></svg>