<?xml version="1.0" encoding="UTF-8" standalone="no"?><!DOCTYPE svg PUBLIC "-//W3C//DTD SVG 1.1//EN" "http://www.w3.org/Graphics/SVG/1.1/DTD/svg11.dtd"><svg width="100%" height="100%" viewBox="0 0 500 500" version="1.1" xmlns="http://www.w3.org/2000/svg" xmlns:xlink="http://www.w3.org/1999/xlink" xml:space="preserve" style="fill-rule:evenodd;clip-rule:evenodd;stroke-linejoin:round;stroke-miterlimit:1.41421;"><rect id="Artboard11" x="0" y="0" width="500" height="500" style="fill:none;"/><clipPath id="_clip1"><rect id="Artboard111" x="0" y="0" width="500" height="500"/></clipPath><g clip-path="url(#_clip1)"><g id="Layer-2"><path d="M249.171,103.188c-63.255,0 -119.221,40.28 -139.265,100.231c-0.945,2.827 -3.517,4.792 -6.492,4.961c-49.823,2.834 -88.851,44.184 -88.851,94.136c0,51.995 42.301,94.296 94.296,94.296l300.987,0c41.681,0 75.59,-33.91 75.59,-75.59c0,-41.682 -33.909,-75.591 -75.59,-75.591c-2.082,0 -4.233,0.091 -6.393,0.271c-1.938,0.16 -3.86,-0.458 -5.338,-1.722c-1.477,-1.264 -2.389,-3.066 -2.53,-5.005c-2.687,-36.893 -19.11,-71.165 -46.243,-96.502c-27.267,-25.462 -62.842,-39.485 -100.171,-39.485m160.675,308.187l-300.987,0c-60.025,0 -108.859,-48.833 -108.859,-108.859c0,-56.024 42.53,-102.674 97.7,-108.288c23.3,-63.367 83.565,-105.603 151.471,-105.603c41.032,0 80.137,15.414 110.11,43.404c28.088,26.229 45.734,61.174 50.161,99.039c0.134,0 0.269,-0.001 0.404,-0.001c49.711,0 90.154,40.443 90.154,90.155c0,49.711 -40.443,90.153 -90.154,90.153" style="fill:#231f20;fill-rule:nonzero;"/><path d="M266.04,257.301l-32.08,0l0,-16.538c0,-8.845 7.195,-16.04 16.04,-16.04c8.844,0 16.04,7.195 16.04,16.04l0,16.538Zm-16.04,-47.141c-16.875,0 -30.603,13.728 -30.603,30.603l0,23.82c0,4.021 3.259,7.281 7.281,7.281l46.644,0c4.021,0 7.281,-3.26 7.281,-7.281l0,-23.82c0,-16.875 -13.728,-30.603 -30.603,-30.603" style="fill:#231f20;fill-rule:nonzero;"/><path d="M279.036,329.938l-58.075,0l0,-58.075l58.075,0l0,58.075Zm6.311,-72.637l-70.696,0c-4.55,0 -8.252,3.702 -8.252,8.252l0,70.697c0,4.549 3.702,8.251 8.252,8.251l70.696,0c4.551,0 8.253,-3.702 8.253,-8.251l0,-70.697c0,-4.55 -3.702,-8.252 -8.253,-8.252" style="fill:#231f20;fill-rule:nonzero;"/></g></g></svg>