<?xml version="1.0" encoding="UTF-8" standalone="no"?><!DOCTYPE svg PUBLIC "-//W3C//DTD SVG 1.1//EN" "http://www.w3.org/Graphics/SVG/1.1/DTD/svg11.dtd"><svg width="100%" height="100%" viewBox="0 0 500 500" version="1.1" xmlns="http://www.w3.org/2000/svg" xmlns:xlink="http://www.w3.org/1999/xlink" xml:space="preserve" style="fill-rule:evenodd;clip-rule:evenodd;stroke-linejoin:round;stroke-miterlimit:1.41421;"><rect id="Artboard4" x="0" y="0" width="500" height="500" style="fill:none;"/><clipPath id="_clip1"><rect id="Artboard41" x="0" y="0" width="500" height="500"/></clipPath><g clip-path="url(#_clip1)"><g id="Layer-2"><path d="M281.562,395.625l0,-96.477c1.731,0.598 3.362,1.194 4.888,1.784c6.712,2.642 12.871,6.006 18.309,10c4.75,3.509 8.452,7.908 11.288,13.427c2.764,5.406 4.171,12.221 4.171,20.232c0,17.703 -4.623,30.371 -14.133,38.729c-6.358,5.59 -14.572,9.707 -24.523,12.305m-66.65,-217.364c-5.543,-2.582 -10.409,-5.39 -14.558,-8.404c-8.162,-5.927 -11.962,-14.416 -11.962,-26.721c0,-15.199 3.669,-25.619 11.218,-31.855c3.846,-3.168 8.967,-5.605 15.302,-7.289l0,74.269Zm51.556,-178.261l-2.691,0l-24.679,0l-9.092,0c-8.322,0 -15.094,6.772 -15.094,15.094l0,7.931c-10.699,1.278 -20.413,3.321 -29.447,6.183c-17.189,5.443 -32.776,13.564 -46.327,24.135c-13.913,10.889 -24.915,24.529 -32.716,40.554c-7.804,16.053 -11.758,34.162 -11.758,53.835c0,22.04 4.181,41.471 12.428,57.752c8.199,16.188 19.401,29.791 33.295,40.431c13.199,10.116 27.867,18.392 43.59,24.592c8.811,3.488 18.998,7.057 30.935,10.833l0,113.266c-8.88,-2.798 -15.711,-7.091 -20.697,-12.968c-9.452,-11.133 -14.304,-28.133 -14.424,-50.531c-0.048,-8.282 -6.817,-15.016 -15.089,-15.016l-63.549,0c-4.046,0 -7.846,1.58 -10.701,4.45c-2.856,2.869 -4.418,6.678 -4.399,10.725c0.208,45.517 14.485,81.69 42.434,107.509c22.339,20.644 51.368,33.305 86.425,37.721l0,8.41c0,8.323 6.772,15.094 15.094,15.094l36.462,0c8.322,0 15.094,-6.771 15.094,-15.094l0,-7.864c36.132,-4.317 66.324,-16.766 89.887,-37.084c28.2,-24.333 42.498,-59.51 42.498,-104.56c0,-22.019 -4.18,-41.447 -12.426,-57.746c-8.23,-16.228 -19.552,-29.849 -33.656,-40.496c-13.434,-10.106 -28.64,-18.548 -45.216,-25.106c-11.911,-4.695 -25.695,-9.306 -41.087,-13.746l0,-95.144c7.045,1.751 12.568,4.678 16.487,8.755c7.121,7.387 11.091,19.151 11.815,34.98c0.37,8.08 6.99,14.409 15.072,14.409l63.576,0c4.049,0 7.851,-1.582 10.707,-4.455c2.856,-2.873 4.416,-6.685 4.394,-10.734c-0.232,-40.161 -13.974,-71.515 -40.845,-93.19c-21.995,-17.733 -49.265,-28.086 -81.206,-30.858l0,-6.973c0,-8.322 -6.772,-15.094 -15.094,-15.094m1.892,412.296c0.033,0 0.066,-0.002 0.1,-0.005c19.542,-2.062 35.293,-8.078 46.965,-18.341c12.629,-11.098 18.944,-27.558 18.944,-49.359c0,-10.333 -1.915,-19.225 -5.735,-26.699c-3.83,-7.453 -8.996,-13.563 -15.498,-18.365c-6.51,-4.782 -13.684,-8.686 -21.521,-11.769c-6.595,-2.559 -14.381,-4.974 -23.011,-7.271c-0.082,-0.022 -0.164,-0.032 -0.244,-0.032c-0.507,0 -0.949,0.409 -0.949,0.944l0,129.949c0,0.527 0.434,0.948 0.949,0.948m-40.247,-213.898c0.504,0 0.95,-0.409 0.95,-0.947l0,-108.979c0,-0.526 -0.434,-0.948 -0.95,-0.948c-0.028,0 -0.054,0.001 -0.08,0.002c-15.917,1.344 -28.531,5.511 -37.435,12.846c-10.902,9.004 -16.357,23.259 -16.357,42.764c0,16.833 5.931,29.556 17.795,38.168c9.447,6.865 21.469,12.51 35.791,17.05c0.095,0.03 0.191,0.044 0.286,0.044m38.355,-184.247c0.52,0 0.943,0.423 0.943,0.943l0,19.481c0,0.511 0.41,0.926 0.922,0.938c34.248,0.79 62.853,10.127 85.551,28.428c23.508,18.962 35.371,46.386 35.578,82.255c0.003,0.525 -0.426,0.957 -0.95,0.957l-63.576,0c-0.502,0 -0.913,-0.401 -0.936,-0.904c-0.889,-19.449 -6.135,-34.168 -15.748,-44.141c-8.95,-9.309 -22.356,-14.179 -39.85,-14.939c-0.014,-0.001 -0.028,-0.001 -0.041,-0.001c-0.519,0 -0.95,0.424 -0.95,0.948l0,120.206c0,0.424 0.288,0.797 0.698,0.908c18.422,5.013 35.001,10.328 49.334,15.978c15.488,6.128 29.453,13.882 41.895,23.241c12.425,9.379 22.28,21.243 29.557,35.591c7.257,14.348 10.901,31.48 10.901,51.358c0,40.953 -12.536,72.227 -37.59,93.843c-24.093,20.779 -55.506,32.262 -93.914,34.823c-0.494,0.033 -0.881,0.442 -0.881,0.936l0,19.906c0,0.52 -0.423,0.943 -0.943,0.943l-2.691,0l-24.679,0l-9.092,0c-0.521,0 -0.943,-0.423 -0.943,-0.943l0,-20.398c0,-0.494 -0.385,-0.9 -0.878,-0.935c-36.882,-2.553 -67.138,-13.978 -90.095,-35.192c-25.068,-23.157 -37.696,-55.552 -37.886,-97.184c-0.002,-0.523 0.425,-0.955 0.949,-0.955l63.549,0c0.517,0 0.935,0.423 0.938,0.941c0.14,25.938 6.062,45.801 17.783,59.609c9.992,11.779 25.053,18.567 44.575,20.937c0.038,0.005 0.077,0.007 0.115,0.007c0.514,0 0.95,-0.422 0.95,-0.949l0,-139.188c0,-0.415 -0.275,-0.782 -0.673,-0.902c-14.305,-4.332 -27.615,-8.759 -39.222,-13.355c-14.544,-5.735 -27.939,-13.283 -40.177,-22.662c-12.246,-9.378 -22.007,-21.241 -29.275,-35.59c-7.267,-14.348 -10.901,-31.462 -10.901,-51.358c0,-17.599 3.447,-33.479 10.331,-47.641c6.885,-14.143 16.45,-26.006 28.696,-35.59c12.238,-9.547 26.203,-16.833 41.896,-21.803c12.296,-3.895 25.197,-5.837 38.442,-6.661c0.496,-0.03 0.883,-0.44 0.883,-0.936l0,-20.007c0,-0.52 0.422,-0.943 0.943,-0.943l36.462,0" style="fill-rule:nonzero;"/></g></g></svg>