<?xml version="1.0" encoding="UTF-8" standalone="no"?><!DOCTYPE svg PUBLIC "-//W3C//DTD SVG 1.1//EN" "http://www.w3.org/Graphics/SVG/1.1/DTD/svg11.dtd"><svg width="100%" height="100%" viewBox="0 0 500 500" version="1.1" xmlns="http://www.w3.org/2000/svg" xmlns:xlink="http://www.w3.org/1999/xlink" xml:space="preserve" style="fill-rule:evenodd;clip-rule:evenodd;stroke-linejoin:round;stroke-miterlimit:1.41421;"><rect id="Artboard16" x="0" y="0" width="500" height="500" style="fill:none;"/><clipPath id="_clip1"><rect id="Artboard161" x="0" y="0" width="500" height="500"/></clipPath><g clip-path="url(#_clip1)"><g id="Layer-2"><path d="M128.641,500l-120.388,0c-4.551,0 -8.253,-3.702 -8.253,-8.252l0,-120.389c0,-4.021 3.26,-7.281 7.282,-7.281c4.021,0 7.281,3.26 7.281,7.281l0,114.078l114.078,0c4.021,0 7.282,3.26 7.282,7.281c0,4.022 -3.261,7.282 -7.282,7.282" style="fill-rule:nonzero;"/><path d="M492.718,135.922c-4.021,0 -7.282,-3.26 -7.282,-7.282l0,-114.077l-114.077,0c-4.022,0 -7.282,-3.26 -7.282,-7.282c0,-4.021 3.26,-7.281 7.282,-7.281l120.388,0c4.551,0 8.253,3.702 8.253,8.252l0,120.388c0,4.022 -3.261,7.282 -7.282,7.282" style="fill-rule:nonzero;"/><path d="M7.282,135.922c-4.021,0 -7.282,-3.26 -7.282,-7.282l0,-120.388c0,-4.55 3.702,-8.252 8.253,-8.252l120.388,0c4.022,0 7.282,3.26 7.282,7.281c0,4.022 -3.26,7.282 -7.282,7.282l-114.077,0l0,114.077c0,4.022 -3.261,7.282 -7.282,7.282" style="fill-rule:nonzero;"/><path d="M491.748,500l-120.388,0c-4.022,0 -7.282,-3.26 -7.282,-7.282c0,-4.021 3.26,-7.281 7.282,-7.281l114.077,0l0,-114.078c0,-4.021 3.26,-7.281 7.282,-7.281c4.021,0 7.281,3.26 7.281,7.281l0,120.389c0,4.55 -3.701,8.252 -8.252,8.252" style="fill-rule:nonzero;"/><path d="M156.222,138.088c-15.257,0 -27.67,12.413 -27.67,27.67c0,15.257 12.413,27.67 27.67,27.67c15.257,0 27.67,-12.413 27.67,-27.67c0,-15.257 -12.413,-27.67 -27.67,-27.67m0,69.903c-23.287,0 -42.233,-18.946 -42.233,-42.233c0,-23.287 18.946,-42.233 42.233,-42.233c23.287,0 42.233,18.946 42.233,42.233c0,23.287 -18.946,42.233 -42.233,42.233" style="fill-rule:nonzero;"/><path d="M135.592,400.72l259.274,0l-95.301,-152.505l-67.1,107.379c-1.52,2.43 -4.136,3.88 -6.999,3.88l-0.002,0c-2.864,-0.001 -5.48,-1.452 -6.997,-3.881l-27.338,-43.747l-55.537,88.874Zm270.658,14.563l-282.043,0c-2.998,0 -5.765,-1.63 -7.218,-4.253c-1.454,-2.623 -1.369,-5.833 0.221,-8.375l66.921,-107.091c1.516,-2.428 4.132,-3.878 6.996,-3.879l0.002,0c2.864,0 5.479,1.449 6.998,3.877l27.339,43.751l67.101,-107.38l0,-0.001c1.518,-2.427 4.133,-3.877 6.996,-3.878l0.002,0c2.863,0 5.478,1.449 6.996,3.875l106.688,170.728c1.589,2.544 1.672,5.753 0.218,8.375c-1.453,2.622 -4.219,4.251 -7.217,4.251" style="fill-rule:nonzero;"/></g></g></svg>