<?xml version="1.0" encoding="UTF-8" standalone="no"?><!DOCTYPE svg PUBLIC "-//W3C//DTD SVG 1.1//EN" "http://www.w3.org/Graphics/SVG/1.1/DTD/svg11.dtd"><svg width="100%" height="100%" viewBox="0 0 500 500" version="1.1" xmlns="http://www.w3.org/2000/svg" xmlns:xlink="http://www.w3.org/1999/xlink" xml:space="preserve" style="fill-rule:evenodd;clip-rule:evenodd;stroke-linejoin:round;stroke-miterlimit:1.41421;"><rect id="Artboard2" x="0" y="0" width="500" height="500" style="fill:none;"/><clipPath id="_clip1"><rect id="Artboard21" x="0" y="0" width="500" height="500"/></clipPath><g clip-path="url(#_clip1)"><g id="Layer-2"><path d="M80.987,480.31l338.025,0l0,-272.387l-338.025,0l0,272.387Zm347.871,19.69l-357.716,0c-5.442,0 -9.845,-4.403 -9.845,-9.845l0,-292.078c0,-5.442 4.403,-9.845 9.845,-9.845l357.716,0c5.442,0 9.845,4.403 9.845,9.845l0,292.078c0,5.442 -4.403,9.845 -9.845,9.845" style="fill:#231f20;fill-rule:nonzero;"/><path d="M159.749,188.232l180.502,0l0,-78.3c0,-49.755 -40.487,-90.242 -90.251,-90.242c-49.765,0 -90.251,40.487 -90.251,90.242l0,78.3Zm190.347,19.69l-200.192,0c-5.442,0 -9.845,-4.403 -9.845,-9.845l0,-88.145c0,-60.619 49.322,-109.932 109.941,-109.932c60.619,0 109.941,49.313 109.941,109.932l0,88.145c0,5.442 -4.403,9.845 -9.845,9.845" style="fill:#231f20;fill-rule:nonzero;"/><rect x="240.155" y="245.255" width="19.69" height="117.527" style="fill:#231f20;fill-rule:nonzero;"/><rect x="219.233" y="264.946" width="61.533" height="39.381" style="fill:#231f20;fill-rule:nonzero;"/></g></g></svg>