<?xml version="1.0" encoding="UTF-8" standalone="no"?><!DOCTYPE svg PUBLIC "-//W3C//DTD SVG 1.1//EN" "http://www.w3.org/Graphics/SVG/1.1/DTD/svg11.dtd"><svg width="100%" height="100%" viewBox="0 0 500 500" version="1.1" xmlns="http://www.w3.org/2000/svg" xmlns:xlink="http://www.w3.org/1999/xlink" xml:space="preserve" style="fill-rule:evenodd;clip-rule:evenodd;stroke-linejoin:round;stroke-miterlimit:1.41421;"><rect id="Artboard10" x="0" y="0" width="500" height="500" style="fill:none;"/><clipPath id="_clip1"><rect id="Artboard101" x="0" y="0" width="500" height="500"/></clipPath><g clip-path="url(#_clip1)"><g id="Layer-2"><path d="M374.16,441.089l-366.143,0c-4.42,0 -8.017,-3.596 -8.017,-8.017l0,-366.144c0,-4.42 3.597,-8.017 8.017,-8.017l366.143,0c4.421,0 8.017,3.597 8.017,8.017l0,55.85c0,4.021 -3.26,7.282 -7.282,7.282c-4.021,0 -7.281,-3.261 -7.281,-7.282l0,-49.304l-353.051,0l0,353.052l353.051,0l0,-119.103c0,-4.02 3.26,-7.28 7.281,-7.28c4.022,0 7.282,3.26 7.282,7.28l0,125.649c0,4.421 -3.596,8.017 -8.017,8.017" style="fill:#231f20;fill-rule:nonzero;"/><path d="M224.816,345.647c-2.142,0 -4.156,-0.835 -5.67,-2.35l-137.251,-137.25c-2.843,-2.843 -2.843,-7.454 0,-10.298c2.844,-2.843 7.454,-2.843 10.298,0l132.623,132.623l262.754,-262.754c2.844,-2.843 7.454,-2.843 10.298,0c2.843,2.844 2.843,7.454 0,10.298l-267.383,267.383c-1.514,1.514 -3.527,2.348 -5.669,2.348" style="fill:#231f20;fill-rule:nonzero;"/></g></g></svg>