<?xml version="1.0" encoding="UTF-8" standalone="no"?><!DOCTYPE svg PUBLIC "-//W3C//DTD SVG 1.1//EN" "http://www.w3.org/Graphics/SVG/1.1/DTD/svg11.dtd"><svg width="100%" height="100%" viewBox="0 0 500 500" version="1.1" xmlns="http://www.w3.org/2000/svg" xmlns:xlink="http://www.w3.org/1999/xlink" xml:space="preserve" style="fill-rule:evenodd;clip-rule:evenodd;stroke-linejoin:round;stroke-miterlimit:1.41421;"><rect id="Artboard15" x="0" y="0" width="500" height="500" style="fill:none;"/><clipPath id="_clip1"><rect id="Artboard151" x="0" y="0" width="500" height="500"/></clipPath><g clip-path="url(#_clip1)"><g id="Layer-2"><path d="M480.56,319.303c-5.36,0 -9.72,-4.36 -9.72,-9.72c0,-5.359 4.36,-9.72 9.72,-9.72c5.36,0 9.72,4.361 9.72,9.72c0,5.36 -4.36,9.72 -9.72,9.72m-461.121,170.977c-5.359,0 -9.72,-4.36 -9.72,-9.719c0,-5.36 4.361,-9.72 9.72,-9.72c5.36,0 9.72,4.36 9.72,9.72c0,5.359 -4.36,9.719 -9.72,9.719m170.978,-480.56c5.359,0 9.719,4.36 9.719,9.72c0,5.36 -4.36,9.72 -9.719,9.72c-5.36,0 -9.72,-4.36 -9.72,-9.72c0,-5.36 4.36,-9.72 9.72,-9.72m290.143,280.424c-8.14,0 -15.117,5.035 -18.008,12.149l-264.845,0l0,-264.845c7.114,-2.891 12.149,-9.868 12.149,-18.008c0,-10.719 -8.72,-19.44 -19.439,-19.44c-10.719,0 -19.44,8.721 -19.44,19.44c0,8.14 5.035,15.117 12.15,18.008l0,269.116l-156.101,156.1c-2.332,-0.992 -4.896,-1.543 -7.587,-1.543c-10.719,0 -19.439,8.721 -19.439,19.44c0,10.718 8.72,19.439 19.439,19.439c10.719,0 19.44,-8.721 19.44,-19.439c0,-2.691 -0.551,-5.255 -1.543,-7.587l156.1,-156.101l269.116,0c2.891,7.115 9.868,12.15 18.008,12.15c10.719,0 19.44,-8.721 19.44,-19.44c0,-10.719 -8.721,-19.439 -19.44,-19.439" style="fill-rule:nonzero;"/></g></g></svg>