<?xml version="1.0" encoding="UTF-8" standalone="no"?><!DOCTYPE svg PUBLIC "-//W3C//DTD SVG 1.1//EN" "http://www.w3.org/Graphics/SVG/1.1/DTD/svg11.dtd"><svg width="100%" height="100%" viewBox="0 0 500 500" version="1.1" xmlns="http://www.w3.org/2000/svg" xmlns:xlink="http://www.w3.org/1999/xlink" xml:space="preserve" style="fill-rule:evenodd;clip-rule:evenodd;stroke-linejoin:round;stroke-miterlimit:1.41421;"><rect id="Artboard14" x="0" y="0" width="500" height="500" style="fill:none;"/><clipPath id="_clip1"><rect id="Artboard141" x="0" y="0" width="500" height="500"/></clipPath><g clip-path="url(#_clip1)"><g id="Layer-2"><path d="M59.208,445.646c-1.242,0 -2.485,-0.474 -3.433,-1.422c-1.895,-1.895 -1.895,-4.969 0,-6.865l381.584,-381.583c1.895,-1.896 4.969,-1.896 6.865,0c1.896,1.895 1.896,4.969 0,6.865l-381.584,381.583c-0.947,0.948 -2.19,1.422 -3.432,1.422" style="fill-rule:nonzero;"/><path d="M440.792,90.483c-2.681,0 -4.854,-2.174 -4.854,-4.854l0,-21.566l-21.566,0c-2.681,0 -4.854,-2.173 -4.854,-4.854c0,-2.681 2.173,-4.855 4.854,-4.855l26.42,0c2.681,0 4.854,2.174 4.854,4.855l0,26.42c0,2.68 -2.173,4.854 -4.854,4.854" style="fill-rule:nonzero;"/><path d="M85.628,445.646l-26.42,0c-2.681,0 -4.854,-2.174 -4.854,-4.854l0,-26.42c0,-2.681 2.173,-4.855 4.854,-4.855c2.681,0 4.855,2.174 4.855,4.855l0,21.565l21.565,0c2.681,0 4.854,2.174 4.854,4.855c0,2.68 -2.173,4.854 -4.854,4.854" style="fill-rule:nonzero;"/><path d="M14.563,485.437l470.874,0l0,-470.874l-470.874,0l0,470.874Zm477.185,14.563l-483.496,0c-4.55,0 -8.252,-3.702 -8.252,-8.252l0,-483.496c0,-4.55 3.702,-8.252 8.252,-8.252l483.496,0c4.55,0 8.252,3.702 8.252,8.252l0,483.496c0,4.55 -3.702,8.252 -8.252,8.252" style="fill-rule:nonzero;"/></g></g></svg>