<?xml version="1.0" encoding="UTF-8" standalone="no"?><!DOCTYPE svg PUBLIC "-//W3C//DTD SVG 1.1//EN" "http://www.w3.org/Graphics/SVG/1.1/DTD/svg11.dtd"><svg width="100%" height="100%" viewBox="0 0 500 500" version="1.1" xmlns="http://www.w3.org/2000/svg" xmlns:xlink="http://www.w3.org/1999/xlink" xml:space="preserve" style="fill-rule:evenodd;clip-rule:evenodd;stroke-linejoin:round;stroke-miterlimit:1.41421;"><rect id="Artboard9" x="0" y="0" width="500" height="500" style="fill:none;"/><clipPath id="_clip1"><rect id="Artboard91" x="0" y="0" width="500" height="500"/></clipPath><g clip-path="url(#_clip1)"><g id="Layer-2"><path d="M140.199,197.479c-29.066,0 -52.713,23.646 -52.713,52.704c0,29.066 23.647,52.713 52.713,52.713c29.058,0 52.704,-23.647 52.704,-52.713c0,-29.058 -23.646,-52.704 -52.704,-52.704m0,114.325c-33.982,0 -61.621,-27.639 -61.621,-61.621c0,-33.973 27.639,-61.613 61.621,-61.613c33.973,0 61.613,27.64 61.613,61.613c0,33.982 -27.64,61.621 -61.613,61.621" style="fill-rule:nonzero;"/><path d="M359.81,197.479c-29.058,0 -52.704,23.646 -52.704,52.704c0,29.066 23.646,52.713 52.704,52.713c29.066,0 52.713,-23.647 52.713,-52.713c0,-29.058 -23.647,-52.704 -52.713,-52.704m0,114.325c-33.973,0 -61.613,-27.639 -61.613,-61.621c0,-33.973 27.64,-61.613 61.613,-61.613c33.982,0 61.621,27.64 61.621,61.613c0,33.982 -27.639,61.621 -61.621,61.621" style="fill-rule:nonzero;"/><path d="M250.009,272.759c7.76,0 14.833,3.932 18.922,10.527l66.955,116.744c0.739,1.183 2.157,1.975 3.706,1.975l147.045,0c2.454,0 4.455,-2.001 4.455,-4.455l0,-295.1c0,-2.453 -2.001,-4.454 -4.455,-4.454l-473.274,0c-2.453,0 -4.454,2.001 -4.454,4.454l0,295.1c0,2.454 2.001,4.455 4.454,4.455l147.055,0c1.548,0 2.966,-0.792 3.784,-2.106l66.798,-116.483c4.167,-6.725 11.24,-10.657 19.009,-10.657m236.628,138.154l-147.045,0c-4.655,0 -8.9,-2.357 -11.354,-6.316l-66.954,-116.744c-2.375,-3.828 -6.621,-6.185 -11.275,-6.185c-4.663,0 -8.909,2.357 -11.362,6.316l-66.798,116.483c-2.531,4.089 -6.777,6.446 -11.431,6.446l-147.055,0c-7.368,0 -13.363,-5.994 -13.363,-13.363l0,-295.1c0,-7.369 5.995,-13.363 13.363,-13.363l473.274,0c7.369,0 13.363,5.994 13.363,13.363l0,295.1c0,7.369 -5.994,13.363 -13.363,13.363" style="fill-rule:nonzero;"/></g></g></svg>