<?xml version="1.0" encoding="UTF-8" standalone="no"?><!DOCTYPE svg PUBLIC "-//W3C//DTD SVG 1.1//EN" "http://www.w3.org/Graphics/SVG/1.1/DTD/svg11.dtd"><svg width="100%" height="100%" viewBox="0 0 500 500" version="1.1" xmlns="http://www.w3.org/2000/svg" xmlns:xlink="http://www.w3.org/1999/xlink" xml:space="preserve" style="fill-rule:evenodd;clip-rule:evenodd;stroke-linejoin:round;stroke-miterlimit:1.41421;"><rect id="Artboard12" x="0" y="0" width="500" height="500" style="fill:none;"/><clipPath id="_clip1"><rect id="Artboard121" x="0" y="0" width="500" height="500"/></clipPath><g clip-path="url(#_clip1)"><g id="Layer-2"><path d="M426.93,315.407l-12.258,0c0.224,-3.838 0.352,-7.703 0.352,-11.597l0,-60.128l11.906,0c19.774,0 35.863,16.087 35.863,35.862c0,19.775 -16.089,35.863 -35.863,35.863m-208.096,170.03c-100.15,0 -181.627,-81.478 -181.627,-181.627l0,-93.384l363.253,0l0,93.384c0,3.896 -0.137,7.761 -0.38,11.597c-0.311,4.909 -0.816,9.766 -1.511,14.563c-12.721,87.798 -88.469,155.467 -179.735,155.467m208.096,-256.318l-11.906,0l0,-25.004c0,-4.55 -3.702,-8.252 -8.253,-8.252l-375.875,0c-4.551,0 -8.252,3.702 -8.252,8.252l0,99.695c0,108.18 88.01,196.19 196.19,196.19c99.31,0 181.612,-74.174 194.441,-170.03l13.655,0c27.805,0 50.426,-22.621 50.426,-50.426c0,-27.805 -22.621,-50.425 -50.426,-50.425" style="fill:#231f20;fill-rule:nonzero;"/><path d="M140.248,173.542c-1.859,0 -3.718,-0.707 -5.139,-2.123c-2.849,-2.838 -2.858,-7.448 -0.02,-10.297c1.466,-1.486 35.832,-37.038 6.391,-71.818c-20.059,-23.699 -16.946,-46.424 -10.802,-61.314c6.44,-15.61 17.435,-25.683 17.9,-26.105c2.98,-2.7 7.585,-2.473 10.285,0.507c2.697,2.977 2.474,7.574 -0.496,10.276c-0.217,0.2 -9.318,8.682 -14.397,21.293c-6.472,16.071 -3.57,31.525 8.626,45.933c15.836,18.708 19.527,40.614 10.676,63.35c-6.457,16.586 -17.402,27.691 -17.865,28.155c-1.423,1.428 -3.291,2.143 -5.159,2.143" style="fill:#231f20;fill-rule:nonzero;"/><path d="M212.081,173.542c-1.859,0 -3.718,-0.707 -5.139,-2.123c-2.849,-2.838 -2.858,-7.448 -0.02,-10.297c1.466,-1.486 35.832,-37.038 6.392,-71.818c-20.06,-23.699 -16.947,-46.424 -10.803,-61.314c6.44,-15.61 17.435,-25.683 17.9,-26.105c2.98,-2.7 7.585,-2.473 10.286,0.507c2.696,2.977 2.473,7.574 -0.497,10.276c-0.214,0.198 -9.317,8.681 -14.396,21.293c-6.473,16.071 -3.571,31.525 8.625,45.933c15.836,18.709 19.528,40.614 10.676,63.35c-6.457,16.586 -17.402,27.691 -17.865,28.155c-1.423,1.428 -3.291,2.143 -5.159,2.143" style="fill:#231f20;fill-rule:nonzero;"/><path d="M283.915,173.542c-1.859,0 -3.718,-0.707 -5.139,-2.123c-2.849,-2.838 -2.858,-7.448 -0.02,-10.297c1.466,-1.486 35.832,-37.038 6.391,-71.818c-20.059,-23.699 -16.946,-46.424 -10.802,-61.314c6.441,-15.61 17.435,-25.683 17.9,-26.105c2.98,-2.7 7.585,-2.473 10.286,0.507c2.696,2.977 2.473,7.574 -0.496,10.276c-0.217,0.2 -9.319,8.682 -14.397,21.293c-6.473,16.071 -3.571,31.525 8.625,45.933c15.836,18.708 19.527,40.614 10.676,63.35c-6.457,16.586 -17.402,27.691 -17.865,28.155c-1.423,1.428 -3.291,2.143 -5.159,2.143" style="fill:#231f20;fill-rule:nonzero;"/></g></g></svg>